<svg xmlns="http://www.w3.org/2000/svg" width="49.761" height="49.757" viewBox="0 0 49.761 49.757">
  <path id="Icon_awesome-redo" dataName="Icon awesome-redo" d="M1.406,0H4.74a.844.844,0,0,1,.844.884L5.3,6.7A17.438,17.438,0,1,1,6.9,30.944a.844.844,0,0,1-.034-1.226l2.391-2.391a.844.844,0,0,1,1.152-.039A12.375,12.375,0,1,0,8.313,11.1l7.139-.342a.844.844,0,0,1,.884.844V14.93a.844.844,0,0,1-.844.844H1.406a.844.844,0,0,1-.844-.844V.844A.844.844,0,0,1,1.406,0Z" transform="matrix(0.788, 0.616, -0.616, 0.788, 21.374, -0.346)" fill="#5c5c5c"/>
</svg>
