<svg xmlns="http://www.w3.org/2000/svg" width="35.916" height="36.924" viewBox="0 0 35.916 36.924">
  <path id="Icon_material-settings" dataName="Icon material-settings" d="M35.086,23.271a14.388,14.388,0,0,0,.129-1.809,14.388,14.388,0,0,0-.129-1.809l3.9-3.046a.931.931,0,0,0,.222-1.182L35.51,9.037a.928.928,0,0,0-1.126-.406l-4.6,1.846a13.489,13.489,0,0,0-3.12-1.809l-.7-4.892a.9.9,0,0,0-.9-.775H17.676a.9.9,0,0,0-.9.775l-.7,4.892a14.184,14.184,0,0,0-3.12,1.809l-4.6-1.846a.9.9,0,0,0-1.126.406L3.534,15.425a.91.91,0,0,0,.222,1.182l3.9,3.046a14.641,14.641,0,0,0-.129,1.809,14.641,14.641,0,0,0,.129,1.809l-3.9,3.046A.931.931,0,0,0,3.534,27.5l3.692,6.388a.928.928,0,0,0,1.126.406l4.6-1.846a13.489,13.489,0,0,0,3.12,1.809l.7,4.892a.9.9,0,0,0,.9.775h7.385a.9.9,0,0,0,.9-.775l.7-4.892a14.184,14.184,0,0,0,3.12-1.809l4.6,1.846a.9.9,0,0,0,1.126-.406L39.2,27.5a.931.931,0,0,0-.222-1.182l-3.9-3.046ZM21.368,27.924a6.462,6.462,0,1,1,6.462-6.462A6.469,6.469,0,0,1,21.368,27.924Z" transform="translate(-3.406 -3)" fill="#5c5c5c"/>
</svg>
