<svg xmlns="http://www.w3.org/2000/svg" width="31.517" height="38.787" viewBox="0 0 31.517 38.787">
  <path id="Icon_awesome-stopwatch" dataName="Icon awesome-stopwatch" d="M32.64,23.03A15.757,15.757,0,1,1,14.458,7.462V4.848H12.337a.912.912,0,0,1-.909-.909V.909A.912.912,0,0,1,12.337,0h9.091a.912.912,0,0,1,.909.909v3.03a.912.912,0,0,1-.909.909H19.307V7.462a15.661,15.661,0,0,1,7.553,3.379l2.083-2.083a.91.91,0,0,1,1.288,0L32.375,10.9a.91.91,0,0,1,0,1.288l-2.227,2.227-.045.045A15.6,15.6,0,0,1,32.64,23.03ZM19.307,25.757V14.28a.912.912,0,0,0-.909-.909h-3.03a.912.912,0,0,0-.909.909V25.757a.912.912,0,0,0,.909.909H18.4A.912.912,0,0,0,19.307,25.757Z" transform="translate(-1.125)" fill="#5c5c5c"/>
</svg>
